<mxfile host="app.diagrams.net" modified="2021-05-04T16:31:45.603Z" agent="5.0 (Windows NT 10.0; Win64; x64) AppleWebKit/537.36 (KHTML, like Gecko) Chrome/90.0.4430.93 Safari/537.36" etag="EYabJcO17w1uVN_eU-E_" version="14.6.6" type="github">
  <diagram id="1_p8cDTTsYu5TMAQoR68" name="Page-1">
    <mxGraphModel dx="1662" dy="794" grid="1" gridSize="10" guides="1" tooltips="1" connect="1" arrows="1" fold="1" page="1" pageScale="1" pageWidth="850" pageHeight="1100" math="0" shadow="0">
      <root>
        <mxCell id="0" />
        <mxCell id="1" parent="0" />
        <mxCell id="7lTUzHQ4FwNOTzoEsvEo-7" value="Repositories" style="points=[[0,0,0],[0.25,0,0],[0.5,0,0],[0.75,0,0],[1,0,0],[1,0.25,0],[1,0.5,0],[1,0.75,0],[1,1,0],[0.75,1,0],[0.5,1,0],[0.25,1,0],[0,1,0],[0,0.75,0],[0,0.5,0],[0,0.25,0]];rounded=1;absoluteArcSize=1;arcSize=2;html=1;strokeColor=none;gradientColor=none;shadow=0;dashed=0;fontSize=12;fontColor=#9E9E9E;align=left;verticalAlign=top;spacing=10;spacingTop=-4;fillColor=#EFEBE9;" parent="1" vertex="1">
          <mxGeometry x="150" y="380" width="120" height="190" as="geometry" />
        </mxCell>
        <mxCell id="7lTUzHQ4FwNOTzoEsvEo-19" style="edgeStyle=orthogonalEdgeStyle;rounded=0;orthogonalLoop=1;jettySize=auto;html=1;exitX=1;exitY=0.5;exitDx=0;exitDy=0;entryX=0;entryY=0.5;entryDx=0;entryDy=0;entryPerimeter=0;" parent="1" source="7lTUzHQ4FwNOTzoEsvEo-5" target="7lTUzHQ4FwNOTzoEsvEo-7" edge="1">
          <mxGeometry relative="1" as="geometry" />
        </mxCell>
        <mxCell id="7lTUzHQ4FwNOTzoEsvEo-5" value="Developers" style="strokeColor=#dddddd;shadow=1;strokeWidth=1;rounded=1;absoluteArcSize=1;arcSize=2;labelPosition=center;verticalLabelPosition=middle;align=center;verticalAlign=bottom;spacingLeft=0;fontColor=#999999;fontSize=12;whiteSpace=wrap;spacingBottom=2;" parent="1" vertex="1">
          <mxGeometry x="50" y="432.5" width="70" height="85" as="geometry" />
        </mxCell>
        <mxCell id="7lTUzHQ4FwNOTzoEsvEo-6" value="" style="dashed=0;connectable=0;html=1;fillColor=#757575;strokeColor=none;shape=mxgraph.gcp2.users;part=1;" parent="7lTUzHQ4FwNOTzoEsvEo-5" vertex="1">
          <mxGeometry x="0.5" width="50" height="31.5" relative="1" as="geometry">
            <mxPoint x="-25" y="19.25" as="offset" />
          </mxGeometry>
        </mxCell>
        <mxCell id="7lTUzHQ4FwNOTzoEsvEo-18" style="edgeStyle=orthogonalEdgeStyle;rounded=0;orthogonalLoop=1;jettySize=auto;html=1;exitX=0.5;exitY=0;exitDx=0;exitDy=0;entryX=0.5;entryY=1;entryDx=0;entryDy=0;" parent="1" source="7lTUzHQ4FwNOTzoEsvEo-8" target="7lTUzHQ4FwNOTzoEsvEo-16" edge="1">
          <mxGeometry relative="1" as="geometry" />
        </mxCell>
        <mxCell id="7lTUzHQ4FwNOTzoEsvEo-8" value="" style="shape=image;verticalLabelPosition=bottom;labelBackgroundColor=#ffffff;verticalAlign=top;aspect=fixed;imageAspect=0;image=data:image/svg+xml,PHN2ZyB4bWxucz0iaHR0cDovL3d3dy53My5vcmcvMjAwMC9zdmciIHZpZXdCb3g9IjAgMCAyNTAuMDI5OTY4MjYxNzE4NzUgNjAuMTUwMDAxNTI1ODc4OTA2IiB3aWR0aD0iMjUwLjAyOTk2ODI2MTcxODc1IiBoZWlnaHQ9IjYwLjE1MDAwMTUyNTg3ODkwNiI+JiN4YTsgIDxwYXRoIGNsYXNzPSJ0ZXh0IiBmaWxsPSIjMDAwIiBkPSJNNzcuMzUgNy44NlY0LjYzaC0zdjMuMjNoLTEuNDZWLjExaDEuNTF2My4yNWgzVi4xMWgxLjUxdjcuNzV6bTcgMGgtMS4ybC0uMTEtLjM4YTMuMjggMy4yOCAwIDAgMS0xLjcuNTJjLTEuMDYgMC0xLjUyLS43LTEuNTItMS42NiAwLTEuMTQuNTEtMS41NyAxLjctMS41N2gxLjR2LS42MmMwLS42Mi0uMTgtLjg0LTEuMTEtLjg0YTguNDYgOC40NiAwIDAgMC0xLjYxLjE3TDgwIDIuNDJhNy44OSA3Ljg5IDAgMCAxIDItLjI2YzEuODMgMCAyLjM3LjYyIDIuMzcgMnptLTEuNDMtMi4xMWgtMS4wOGMtLjQ4IDAtLjYxLjEzLS42MS41NXMuMTMuNTYuNTkuNTZhMi4zNyAyLjM3IDAgMCAwIDEuMS0uMjl6TTg3LjQzIDhhNy4xMiA3LjEyIDAgMCAxLTItLjMybC4yLTEuMDdhNi43NyA2Ljc3IDAgMCAwIDEuNzMuMjRjLjY1IDAgLjc0LS4xNC43NC0uNTZzLS4wNy0uNTItMS0uNzNjLTEuNDItLjMzLTEuNTktLjY4LTEuNTktMS43NnMuNDktMS42NSAyLjE2LTEuNjVhOCA4IDAgMCAxIDEuNzUuMmwtLjE0IDEuMTFhMTAuNjYgMTAuNjYgMCAwIDAtMS42LS4xNmMtLjYzIDAtLjc0LjE0LS43NC40OHMwIC40OC44Mi42OGMxLjYzLjQxIDEuNzguNjIgMS43OCAxLjc3Uzg5LjE5IDggODcuNDMgOHptNi42OC0uMTFWNGMwLS4zLS4xMy0uNDUtLjQ3LS40NWE0LjE0IDQuMTQgMCAwIDAtMS41Mi40NXYzLjg2aC0xLjQ2VjBsMS40Ni4yMnYyLjQ3YTUuMzEgNS4zMSAwIDAgMSAyLjEzLS41NGMxIDAgMS4zMi42NSAxLjMyIDEuNjV2NC4wNnptMi42OC02LjM4Vi4xMWgxLjQ2djEuMzd6bTAgNi4zOFYyLjI3aDEuNDZ2NS41OXptMi42Mi01LjU0YzAtMS40Ljg1LTIuMjIgMi44My0yLjIyYTkuMzcgOS4zNyAwIDAgMSAyLjE2LjI1bC0uMTcgMS4yNWExMi4yMSAxMi4yMSAwIDAgMC0xLjk1LS4yYy0xIDAtMS4zNy4zNC0xLjM3IDEuMTZWNS41YzAgLjgxLjMzIDEuMTYgMS4zNyAxLjE2YTEyLjIxIDEyLjIxIDAgMCAwIDEuOTUtLjJsLjE3IDEuMjVhOS4zNyA5LjM3IDAgMCAxLTIuMTYuMjVjLTIgMC0yLjgzLS44MS0yLjgzLTIuMjJ6TTEwNy42MyA4Yy0yIDAtMi41My0xLjA2LTIuNTMtMi4yVjQuMzZjMC0xLjE1LjU0LTIuMiAyLjUzLTIuMnMyLjUzIDEuMDYgMi41MyAyLjJ2MS40MWMuMDEgMS4xNS0uNTMgMi4yMy0yLjUzIDIuMjN6bTAtNC42M2MtLjc4IDAtMS4wOC4zMy0xLjA4IDF2MS41YzAgLjYzLjMgMSAxLjA4IDFzMS4wOC0uMzMgMS4wOC0xVjQuMzFjMC0uNjMtLjMtLjk2LTEuMDgtLjk2em02LjY0LjA5YTExLjU3IDExLjU3IDAgMCAwLTEuNTQuODF2My42aC0xLjQ2di01LjZoMS4yM2wuMS42MmE2LjYzIDYuNjMgMCAwIDEgMS41My0uNzN6TTEyMC4xIDZhMS43MyAxLjczIDAgMCAxLTEuOTIgMiA4LjM2IDguMzYgMCAwIDEtMS41NS0uMTZ2Mi4yNmwtMS40Ni4yMnYtOGgxLjE2bC4xNC40N2EzLjE1IDMuMTUgMCAwIDEgMS44NC0uNTljMS4xNyAwIDEuNzkuNjcgMS43OSAxLjk0em0tMy40OC42M2E2LjcyIDYuNzIgMCAwIDAgMS4yOS4xNWMuNTMgMCAuNzMtLjI0LjczLS43NXYtMmMwLS40Ni0uMTgtLjcxLS43Mi0uNzFhMi4xMSAyLjExIDAgMCAwLTEuMy41MXpNODEuNzggMTkuNTRoLTguODl2LTUuMzFIOTYuN3Y1LjMxaC04Ljl2MjYuNTNoLTZ6Ii8+JiN4YTsgIDxwYXRoIGNsYXNzPSJ0ZXh0IiBmaWxsPSIjMDAwIiBkPSJNMTAyLjE5IDQxLjc3YTI0LjM5IDI0LjM5IDAgMCAwIDcuMTItMS4xbC45MSA0LjRhMjUgMjUgMCAwIDEtOC41NiAxLjQ4Yy03LjMxIDAtOS44NS0zLjM5LTkuODUtOVYzMS40YzAtNC45MiAyLjItOS4wOCA5LjY2LTkuMDhzOS4xMyA0LjM1IDkuMTMgOS4zN3Y1aC0xM3YxLjJjLjA1IDIuNzggMS4wNSAzLjg4IDQuNTkgMy44OHpNOTcuNjUgMzJoNy40MXYtMS4xOGMwLTIuMi0uNjctMy43My0zLjU0LTMuNzNzLTMuODcgMS41My0zLjg3IDMuNzN6bTI4LjU0LTQuMzNhNDUuNjUgNDUuNjUgMCAwIDAtNi4xOSAzLjM5djE1aC01LjgzVjIyLjc5aDQuOTJsLjM4IDIuNThhMjYuMDkgMjYuMDkgMCAwIDEgNi4xMi0zLjA2em0xNC4yNCAwYTQ1LjY1IDQ1LjY1IDAgMCAwLTYuMTcgMy4zOXYxNWgtNS44M1YyMi43OWg0LjkybC4zOCAyLjU4YTI2LjA5IDI2LjA5IDAgMCAxIDYuMTItMy4wNnptMTkuNTEgMTguNGgtNC43OGwtLjQzLTEuNThhMTIuNzMgMTIuNzMgMCAwIDEtNi45MyAyLjA2Yy00LjI1IDAtNi4wNy0yLjkyLTYuMDctNi45MyAwLTQuNzMgMi4wNi02LjU1IDYuNzktNi41NWg1LjU5di0yLjQ0YzAtMi41OC0uNzItMy40OS00LjQ1LTMuNDlhMzIuNTMgMzIuNTMgMCAwIDAtNi40NS43MmwtLjcyLTQuNDVhMzAuMzggMzAuMzggMCAwIDEgOC0xLjFjNy4zMSAwIDkuNDcgMi41OCA5LjQ3IDguNDF6bS01LjgzLTguOGgtNC4zYy0xLjkxIDAtMi40NC41My0yLjQ0IDIuMjlzLjUzIDIuMzQgMi4zNCAyLjM0YTkuMTggOS4xOCAwIDAgMCA0LjQtMS4yem0yMy43NS0xOS43OWExNy4xMSAxNy4xMSAwIDAgMC0zLjM1LS4zOGMtMi4yOSAwLTIuNjMgMS0yLjYzIDIuNzd2Mi45Mmg1LjkzbC0uMzMgNC42NGgtNS41OXYxOC42NGgtNS44M1YyNy40M2gtMy43M3YtNC42NGgzLjczdi0zLjI1YzAtNC44MyAyLjI1LTcuMjIgNy40MS03LjIyYTE4LjQ3IDE4LjQ3IDAgMCAxIDUgLjY3em0xMS4zOCAyOS4wN2MtOCAwLTEwLjEzLTQuNC0xMC4xMy05LjE4di01Ljg4YzAtNC43OCAyLjE1LTkuMTggMTAuMTMtOS4xOHMxMC4xMyA0LjQgMTAuMTMgOS4xOHY1Ljg4Yy4wMSA0Ljc4LTIuMTUgOS4xOC0xMC4xMyA5LjE4em0wLTE5LjI3Yy0zLjExIDAtNC4zIDEuMzktNC4zIDR2Ni4yNmMwIDIuNjMgMS4yIDQgNC4zIDRzNC4zLTEuMzkgNC4zLTRWMzEuM2MwLTIuNjMtMS4xOS00LjAyLTQuMy00LjAyem0yNS4xNC4zOWE0NS42NSA0NS42NSAwIDAgMC02LjE3IDMuMzl2MTVoLTUuODNWMjIuNzloNC45MmwuMzggMi41OGEyNi4wOCAyNi4wOCAwIDAgMSA2LjEyLTMuMDZ6bTE2LjAyIDE4LjRWMjkuODJjMC0xLjI0LS41My0xLjg2LTEuODYtMS44NmExNi4wOCAxNi4wOCAwIDAgMC02LjA3IDJ2MTYuMTFoLTUuODNWMjIuNzloNC40NWwuNTcgMmEyMy4zMiAyMy4zMiAwIDAgMSA5LjM0LTIuNDggNC40MiA0LjQyIDAgMCAxIDQuNCAyLjQ5IDIyLjgzIDIyLjgzIDAgMCAxIDkuMzctMi40OWMzLjg3IDAgNS4yNiAyLjcyIDUuMjYgNi44OHYxNi44OGgtNS44M1YyOS44MmMwLTEuMjQtLjUzLTEuODYtMS44Ni0xLjg2YTE1LjQzIDE1LjQzIDAgMCAwLTYuMDcgMnYxNi4xMXoiLz4mI3hhOyAgPHBhdGggY2xhc3M9InJlY3QtZGFyayIgZmlsbD0iIzQwNDBCMiIgZD0iTTM2LjQgMjAuMnYxOC45M2wxNi40LTkuNDZWMTAuNzJMMzYuNCAyMC4yeiIvPiYjeGE7ICA8cGF0aCBjbGFzcz0icmVjdC1saWdodCIgZmlsbD0iIzVDNEVFNSIgZD0iTTE4LjIgMTAuNzJsMTYuNCA5LjQ4djE4LjkzbC0xNi40LTkuNDdWMTAuNzJ6Ii8+JiN4YTsgIDxwYXRoIGNsYXNzPSJyZWN0LWxpZ2h0IiBmaWxsPSIjNUM0RUU1IiBkPSJNMCAuMTV2MTguOTRsMTYuNCA5LjQ3VjkuNjJMMCAuMTV6bTE4LjIgNTAuNTNsMTYuNCA5LjQ3VjQxLjIxbC0xNi40LTkuNDd2MTguOTR6Ii8+JiN4YTs8L3N2Zz4=;" parent="1" vertex="1">
          <mxGeometry x="353.34" y="517.5" width="83.33" height="20" as="geometry" />
        </mxCell>
        <mxCell id="7lTUzHQ4FwNOTzoEsvEo-10" value="Infra Repo" style="dashed=0;outlineConnect=0;html=1;align=center;labelPosition=center;verticalLabelPosition=bottom;verticalAlign=top;shape=mxgraph.weblogos.github" parent="1" vertex="1">
          <mxGeometry x="180" y="440" width="57.5" height="55" as="geometry" />
        </mxCell>
        <mxCell id="7lTUzHQ4FwNOTzoEsvEo-14" value="" style="strokeColor=#dddddd;shadow=1;strokeWidth=1;rounded=1;absoluteArcSize=1;arcSize=2;" parent="1" vertex="1">
          <mxGeometry x="460" y="570" width="140" height="60" as="geometry" />
        </mxCell>
        <mxCell id="7lTUzHQ4FwNOTzoEsvEo-15" value="&lt;font color=&quot;#000000&quot;&gt;TF State files&lt;/font&gt;&lt;br&gt;Cloud Storage" style="dashed=0;connectable=0;html=1;fillColor=#5184F3;strokeColor=none;shape=mxgraph.gcp2.hexIcon;prIcon=cloud_storage;part=1;labelPosition=right;verticalLabelPosition=middle;align=left;verticalAlign=middle;spacingLeft=5;fontColor=#999999;fontSize=12;" parent="7lTUzHQ4FwNOTzoEsvEo-14" vertex="1">
          <mxGeometry y="0.5" width="44" height="39" relative="1" as="geometry">
            <mxPoint x="5" y="-19.5" as="offset" />
          </mxGeometry>
        </mxCell>
        <mxCell id="7lTUzHQ4FwNOTzoEsvEo-16" value="" style="strokeColor=#dddddd;shadow=1;strokeWidth=1;rounded=1;absoluteArcSize=1;arcSize=2;" parent="1" vertex="1">
          <mxGeometry x="330" y="420" width="130" height="60" as="geometry" />
        </mxCell>
        <mxCell id="7lTUzHQ4FwNOTzoEsvEo-17" value="&lt;font color=&quot;#000000&quot;&gt;GitHub App&lt;/font&gt;&lt;br&gt;Cloud Build" style="dashed=0;connectable=0;html=1;fillColor=#5184F3;strokeColor=none;shape=mxgraph.gcp2.hexIcon;prIcon=container_builder;part=1;labelPosition=right;verticalLabelPosition=middle;align=left;verticalAlign=middle;spacingLeft=5;fontColor=#999999;fontSize=12;" parent="7lTUzHQ4FwNOTzoEsvEo-16" vertex="1">
          <mxGeometry y="0.5" width="44" height="39" relative="1" as="geometry">
            <mxPoint x="5" y="-19.5" as="offset" />
          </mxGeometry>
        </mxCell>
        <mxCell id="7lTUzHQ4FwNOTzoEsvEo-20" value="" style="strokeColor=#dddddd;shadow=1;strokeWidth=1;rounded=1;absoluteArcSize=1;arcSize=2;" parent="1" vertex="1">
          <mxGeometry x="480" y="360" width="150" height="60" as="geometry" />
        </mxCell>
        <mxCell id="7lTUzHQ4FwNOTzoEsvEo-21" value="&lt;font color=&quot;#000000&quot;&gt;DAG Orchestration&lt;/font&gt;&lt;br&gt;Cloud Composer" style="dashed=0;connectable=0;html=1;fillColor=#5184F3;strokeColor=none;shape=mxgraph.gcp2.hexIcon;prIcon=cloud_composer;part=1;labelPosition=right;verticalLabelPosition=middle;align=left;verticalAlign=middle;spacingLeft=5;fontColor=#999999;fontSize=12;" parent="7lTUzHQ4FwNOTzoEsvEo-20" vertex="1">
          <mxGeometry y="0.5" width="44" height="39" relative="1" as="geometry">
            <mxPoint x="5" y="-19.5" as="offset" />
          </mxGeometry>
        </mxCell>
        <mxCell id="7lTUzHQ4FwNOTzoEsvEo-22" value="" style="strokeColor=#dddddd;shadow=1;strokeWidth=1;rounded=1;absoluteArcSize=1;arcSize=2;" parent="1" vertex="1">
          <mxGeometry x="490" y="470" width="140" height="60" as="geometry" />
        </mxCell>
        <mxCell id="7lTUzHQ4FwNOTzoEsvEo-23" value="&lt;font color=&quot;#000000&quot;&gt;User Inputs&lt;/font&gt;&lt;br&gt;Cloud Storage" style="dashed=0;connectable=0;html=1;fillColor=#5184F3;strokeColor=none;shape=mxgraph.gcp2.hexIcon;prIcon=cloud_storage;part=1;labelPosition=right;verticalLabelPosition=middle;align=left;verticalAlign=middle;spacingLeft=5;fontColor=#999999;fontSize=12;" parent="7lTUzHQ4FwNOTzoEsvEo-22" vertex="1">
          <mxGeometry y="0.5" width="44" height="39" relative="1" as="geometry">
            <mxPoint x="5" y="-19.5" as="offset" />
          </mxGeometry>
        </mxCell>
        <mxCell id="7lTUzHQ4FwNOTzoEsvEo-24" value="" style="strokeColor=#dddddd;shadow=1;strokeWidth=1;rounded=1;absoluteArcSize=1;arcSize=2;" parent="1" vertex="1">
          <mxGeometry x="680" y="360" width="90" height="60" as="geometry" />
        </mxCell>
        <mxCell id="7lTUzHQ4FwNOTzoEsvEo-25" value="Jobs&#xa;API" style="dashed=0;connectable=0;html=1;fillColor=#5184F3;strokeColor=none;shape=mxgraph.gcp2.hexIcon;prIcon=cloud_jobs_api;part=1;labelPosition=right;verticalLabelPosition=middle;align=left;verticalAlign=middle;spacingLeft=5;fontColor=#999999;fontSize=12;" parent="7lTUzHQ4FwNOTzoEsvEo-24" vertex="1">
          <mxGeometry y="0.5" width="44" height="39" relative="1" as="geometry">
            <mxPoint x="5" y="-19.5" as="offset" />
          </mxGeometry>
        </mxCell>
        <mxCell id="7lTUzHQ4FwNOTzoEsvEo-26" value="" style="strokeColor=#dddddd;shadow=1;strokeWidth=1;rounded=1;absoluteArcSize=1;arcSize=2;" parent="1" vertex="1">
          <mxGeometry x="490" y="110" width="120" height="60" as="geometry" />
        </mxCell>
        <mxCell id="7lTUzHQ4FwNOTzoEsvEo-27" value="&lt;font color=&quot;#000000&quot;&gt;Input Data&lt;/font&gt;&lt;br&gt;BigQuery" style="dashed=0;connectable=0;html=1;fillColor=#5184F3;strokeColor=none;shape=mxgraph.gcp2.hexIcon;prIcon=bigquery;part=1;labelPosition=right;verticalLabelPosition=middle;align=left;verticalAlign=middle;spacingLeft=5;fontColor=#999999;fontSize=12;" parent="7lTUzHQ4FwNOTzoEsvEo-26" vertex="1">
          <mxGeometry y="0.5" width="44" height="39" relative="1" as="geometry">
            <mxPoint x="5" y="-19.5" as="offset" />
          </mxGeometry>
        </mxCell>
        <mxCell id="7lTUzHQ4FwNOTzoEsvEo-28" value="" style="strokeColor=#dddddd;shadow=1;strokeWidth=1;rounded=1;absoluteArcSize=1;arcSize=2;" parent="1" vertex="1">
          <mxGeometry x="590" y="280" width="120" height="60" as="geometry" />
        </mxCell>
        <mxCell id="7lTUzHQ4FwNOTzoEsvEo-29" value="&lt;font color=&quot;#000000&quot;&gt;Output&lt;/font&gt;&lt;br&gt;BigQuery" style="dashed=0;connectable=0;html=1;fillColor=#5184F3;strokeColor=none;shape=mxgraph.gcp2.hexIcon;prIcon=bigquery;part=1;labelPosition=right;verticalLabelPosition=middle;align=left;verticalAlign=middle;spacingLeft=5;fontColor=#999999;fontSize=12;" parent="7lTUzHQ4FwNOTzoEsvEo-28" vertex="1">
          <mxGeometry y="0.5" width="44" height="39" relative="1" as="geometry">
            <mxPoint x="5" y="-19.5" as="offset" />
          </mxGeometry>
        </mxCell>
        <mxCell id="7lTUzHQ4FwNOTzoEsvEo-30" value="Repositories" style="points=[[0,0,0],[0.25,0,0],[0.5,0,0],[0.75,0,0],[1,0,0],[1,0.25,0],[1,0.5,0],[1,0.75,0],[1,1,0],[0.75,1,0],[0.5,1,0],[0.25,1,0],[0,1,0],[0,0.75,0],[0,0.5,0],[0,0.25,0]];rounded=1;absoluteArcSize=1;arcSize=2;html=1;strokeColor=none;gradientColor=none;shadow=0;dashed=0;fontSize=12;fontColor=#9E9E9E;align=left;verticalAlign=top;spacing=10;spacingTop=-4;fillColor=#EFEBE9;" parent="1" vertex="1">
          <mxGeometry x="150" y="690" width="120" height="190" as="geometry" />
        </mxCell>
        <mxCell id="7lTUzHQ4FwNOTzoEsvEo-31" value="ML Repo" style="dashed=0;outlineConnect=0;html=1;align=center;labelPosition=center;verticalLabelPosition=bottom;verticalAlign=top;shape=mxgraph.weblogos.github" parent="1" vertex="1">
          <mxGeometry x="181.25" y="750" width="57.5" height="55" as="geometry" />
        </mxCell>
        <mxCell id="7lTUzHQ4FwNOTzoEsvEo-32" value="Developers" style="strokeColor=#dddddd;shadow=1;strokeWidth=1;rounded=1;absoluteArcSize=1;arcSize=2;labelPosition=center;verticalLabelPosition=middle;align=center;verticalAlign=bottom;spacingLeft=0;fontColor=#999999;fontSize=12;whiteSpace=wrap;spacingBottom=2;" parent="1" vertex="1">
          <mxGeometry x="50" y="742.5" width="70" height="85" as="geometry" />
        </mxCell>
        <mxCell id="7lTUzHQ4FwNOTzoEsvEo-33" value="" style="dashed=0;connectable=0;html=1;fillColor=#757575;strokeColor=none;shape=mxgraph.gcp2.users;part=1;" parent="7lTUzHQ4FwNOTzoEsvEo-32" vertex="1">
          <mxGeometry x="0.5" width="50" height="31.5" relative="1" as="geometry">
            <mxPoint x="-25" y="19.25" as="offset" />
          </mxGeometry>
        </mxCell>
        <mxCell id="7lTUzHQ4FwNOTzoEsvEo-34" value="" style="strokeColor=#dddddd;shadow=1;strokeWidth=1;rounded=1;absoluteArcSize=1;arcSize=2;" parent="1" vertex="1">
          <mxGeometry x="330" y="747.5" width="130" height="60" as="geometry" />
        </mxCell>
        <mxCell id="7lTUzHQ4FwNOTzoEsvEo-35" value="&lt;font color=&quot;#000000&quot;&gt;DAG Runner&lt;/font&gt;&lt;br&gt;Cloud Build" style="dashed=0;connectable=0;html=1;fillColor=#5184F3;strokeColor=none;shape=mxgraph.gcp2.hexIcon;prIcon=container_builder;part=1;labelPosition=right;verticalLabelPosition=middle;align=left;verticalAlign=middle;spacingLeft=5;fontColor=#999999;fontSize=12;" parent="7lTUzHQ4FwNOTzoEsvEo-34" vertex="1">
          <mxGeometry y="0.5" width="44" height="39" relative="1" as="geometry">
            <mxPoint x="5" y="-19.5" as="offset" />
          </mxGeometry>
        </mxCell>
      </root>
    </mxGraphModel>
  </diagram>
</mxfile>
